<svg xmlns="http://www.w3.org/2000/svg" viewBox="0 0 141.36 145.41"><defs><style>.cls-1{fill:#c7253e;}.cls-2{fill:#fabc3f;}</style></defs><title>Pawpal_Icon_Colored</title><g id="Layer_2" data-name="Layer 2"><g id="Layer_1-2" data-name="Layer 1"><g id="Icon_Coloredd"><path class="cls-1" d="M70.25,83.48a29.43,29.43,0,0,1-7-1,25.4,25.4,0,0,1-13.33-7c-7.25-6.82-11.37-17.6-11.3-29.59a59.83,59.83,0,0,1,4.51-21.15C49.49,10.29,60.4,1.34,73.09.11A22.45,22.45,0,0,1,75.35,0,31.78,31.78,0,0,1,83.7,1.23,26.83,26.83,0,0,1,95.4,7.67c9.77,8.81,13.62,23.25,10.52,39.59C102.59,64.66,92,78,78.3,82.13a26.3,26.3,0,0,1-8,1.35Z"/><path class="cls-1" d="M98.94,106.49A26.3,26.3,0,0,1,86.2,103.3,27,27,0,0,1,71.92,85.22C69.78,76.65,71.1,68,76,58.83c5.79-10.9,14.94-19.34,25.12-23.18a35,35,0,0,1,12.39-2.48,28.85,28.85,0,0,1,3.7.24l.19,0a28.31,28.31,0,0,1,20,13.25c4.33,7.36,5.15,17,2.26,26.61C137.94,79,133.09,87,129.6,90.94a59.87,59.87,0,0,1-11.29,9.77,36.71,36.71,0,0,1-19,5.79Z"/><path class="cls-1" d="M33.29,93.68C24.42,93.68,16.16,89.54,10,82,1,70.8-2.51,51.27,1.92,36.53,6,22.94,14.62,17,21.18,14.36a25.31,25.31,0,0,1,9.34-1.69,29.93,29.93,0,0,1,15.11,4c8.51,5.12,15.14,15.31,17.67,27.21C65.05,52,64.71,62.54,62.42,70,57.94,84.4,46.51,93.68,33.3,93.68Z"/><path class="cls-1" d="M79.92,145.41a29.92,29.92,0,0,1-6.54-.72c-5.12-1.13-8.7-3-13.56-5.83-4.08-2.33-4.35-2.42-5.16-2.67a4.32,4.32,0,0,0-1.88-.36c-.78,0-1.88.06-3.36.19-2.53.23-4.76.34-6.82.34-6.34,0-15.75-.92-24.11-8.84C7.8,117.35,4.59,100.17,10.64,85.71a37.64,37.64,0,0,1,9.09-13.09h0c2.72-2.38,25.19-18.43,29-20.35A38.69,38.69,0,0,1,66,48.18c.81,0,1.64,0,2.45.08,10.19.63,20.58,6.38,27,15,2.69,3.56,14.67,26.13,15.8,28.53a34.15,34.15,0,0,1,3.53,14.1A39.33,39.33,0,0,1,104,134.67c-6.62,6.92-15.16,10.74-24,10.74Z"/><path class="cls-2" d="M67.12,68.21a18.44,18.44,0,0,0-9.43,2C56,71,34.75,86,33.1,87.5a17.75,17.75,0,0,0-4,5.93c-2.79,6.68-1.42,15.22,3.15,19.57,3.21,3,7.07,3.84,15.45,3.1,6.11-.53,8.92-.31,13.08,1,2.63.84,3.93,1.48,9,4.37,4.42,2.53,5.86,3.2,7.95,3.66,8.59,1.9,17.58-7.76,17.1-18.38a14.29,14.29,0,0,0-1.63-6.46c-1.84-3.89-12.7-23.73-13.72-25.09A17.85,17.85,0,0,0,67.12,68.21Z"/><path class="cls-2" d="M75,20c-5.28.52-10.24,5.19-13.55,12.7A40.39,40.39,0,0,0,58.62,46c0,6.26,1.9,12,5,14.93,1.52,1.45,1.68,1.52,4.14,2.1s2.61.58,4.69-.06c6.4-1.91,11.91-9.68,13.78-19.45,1.77-9.3.22-17-4.3-21a7.07,7.07,0,0,0-3.67-2A11,11,0,0,0,75,20Z"/><path class="cls-2" d="M114.7,53.25a13.07,13.07,0,0,0-6.57,1.12c-5.59,2.11-11,7.27-14.5,13.82-2.5,4.73-3.23,8.54-2.29,12.23a7.06,7.06,0,0,0,4,5.1,6.78,6.78,0,0,0,3.91,1,16.92,16.92,0,0,0,8.38-2.71,41.06,41.06,0,0,0,7-6.12,39.48,39.48,0,0,0,5.87-10.14c1.27-4.21,1.13-8.23-.36-10.74A8.5,8.5,0,0,0,114.7,53.25Z"/><path class="cls-2" d="M28.56,33c-3.55,1.41-6,4.47-7.49,9.35-2.54,8.43-.45,21,4.46,27.1,6.06,7.43,14.61,4.88,17.77-5.29A37.06,37.06,0,0,0,43.74,48c-1.36-6.37-4.69-12-8.5-14.27A10.18,10.18,0,0,0,28.56,33Z"/></g></g></g></svg>