<svg xmlns="http://www.w3.org/2000/svg" viewBox="0 0 489.23 276.51"><defs><style>.cls-1{fill:#c7253e;}.cls-2{fill:#fff;}.cls-3{fill:#fabc3f;}</style></defs><title>Pawpal_Logo_Colored</title><g id="Layer_2" data-name="Layer 2"><g id="Layer_1-2" data-name="Layer 1"><g id="Logo_Mono"><path class="cls-1" d="M44.6,236.6c-17.21,0-30.36-9.16-35.18-24.5A139.58,139.58,0,0,1,4,183.33C3.07,173.4,2.6,162.65,2.6,151.4a566.08,566.08,0,0,1,4-67.5c1.51-12.48,3-23,4.58-31.78A23.16,23.16,0,0,1,0,32.6C0,26.45,2.51,15.08,19.32,8A77,77,0,0,1,40,2.55l.44,0L44,2.14A204,204,0,0,1,72.6,0a100.8,100.8,0,0,1,31.67,5.11C115.07,8.68,126,15.3,136.8,24.77l.33.3c12.39,11.38,18.67,27.1,18.67,46.73a93.4,93.4,0,0,1-5.66,31.33,99.22,99.22,0,0,1-16.52,29.19,88.21,88.21,0,0,1-27.38,22.37A79.08,79.08,0,0,1,71,163.57c.16,5.76.44,10.79.85,15a119.26,119.26,0,0,0,3.48,19.31,38.1,38.1,0,0,1,1.51,10.3c0,13.85-9.41,28-30.43,28.4H44.6Z"/><path class="cls-1" d="M163.27,222.18a42.71,42.71,0,0,1-9.49-1.11l-.44-.1-.43-.12c-11.26-3.14-17.19-9.54-20.28-14.9a47.88,47.88,0,0,1-7.76.63,43,43,0,0,1-27.36-9.44,37.75,37.75,0,0,1-14.19-27.31l-.25-4v-.62c0-22.9,10-42.47,28.8-56.6l.34-.25A47.68,47.68,0,0,1,140.47,99q1.42,0,2.82.06a31.79,31.79,0,0,1,6.31-5.85,34.33,34.33,0,0,1,19.67-6.41c15.07,0,26.38,8.75,29.52,22.85l.09.43a53.53,53.53,0,0,1,1,10.52,96.08,96.08,0,0,1-1.34,16.36h0c-1.9,15.94-2.86,28.34-2.86,36.84,0,4.1.06,7.57.18,10.33l.22,6.32v.35c0,7.12-1.41,12.91-4.3,17.68-2.62,4.29-7.83,9.84-17.93,12.29A40.23,40.23,0,0,1,163.27,222.18Z"/><path class="cls-1" d="M310.57,276.51a43.26,43.26,0,0,1-18.86-4.37l-.29-.14c-5.27-2.64-12.25-8.28-15.53-20.17l-.08-.29-.07-.3c-2.85-11.69-4.17-30-4.17-57.53,0-13.57.24-26.72.72-39.07s1-21.49,1.54-27.64c.92-15.23,2.88-24.06,6.72-30.43,5.55-9.19,15.4-14.46,27-14.46,17.71,0,25.21,8.25,28.38,15.16.25.54.48,1.1.7,1.67a34,34,0,0,1,23.16,10.33,35.42,35.42,0,0,1,10.36,25.64c0,11.56-4.76,22.4-14.14,32.22l-.23.24-.23.23a109.54,109.54,0,0,1-13,11.22c-.54,12.25-.81,22.68-.81,31.09,0,19.83.63,27.16,1,29.77l.07.47,0,.47c.33,3.47.49,6.25.49,8.49a26.18,26.18,0,0,1-3.81,14.42,24.44,24.44,0,0,1-11.92,9.62A46.39,46.39,0,0,1,310.57,276.51Z"/><path class="cls-1" d="M410.37,222.18a42.71,42.71,0,0,1-9.49-1.11l-.44-.1-.43-.12c-11.26-3.14-17.19-9.54-20.28-14.9a47.88,47.88,0,0,1-7.76.63,43,43,0,0,1-27.36-9.44,37.75,37.75,0,0,1-14.19-27.31l-.25-4v-.62c0-22.9,10-42.47,28.8-56.6l.34-.25A47.68,47.68,0,0,1,387.57,99c.95,0,1.89,0,2.81.06a32.12,32.12,0,0,1,6.32-5.85,34.33,34.33,0,0,1,19.67-6.41c15.07,0,26.38,8.75,29.52,22.85l.09.43a53.53,53.53,0,0,1,1,10.52,96.08,96.08,0,0,1-1.34,16.36h0c-1.9,15.94-2.86,28.34-2.86,36.84,0,4.1.06,7.57.18,10.33l.22,6.32v.35c0,7.12-1.41,12.91-4.3,17.68-2.62,4.29-7.83,9.84-17.93,12.29A40.23,40.23,0,0,1,410.37,222.18Z"/><path class="cls-1" d="M455,221.31a43.08,43.08,0,0,1-21.79-5.67c-8.46-4.88-14.05-12.76-16.17-22.79l-.14-.65-.09-.65a185.67,185.67,0,0,1-1.61-26.24,525.8,525.8,0,0,1,3.11-54.39c2-19.15,4.08-35,6.12-47,1.28-9.35,3.68-16.2,7.54-21.56,4-5.57,11.83-12.23,26.44-12.23,13.43,0,20.76,6.08,24.55,11.18,4.27,5.76,6.24,13.07,6.24,23a242,242,0,0,1-1.71,25.18l0,.15c-1.91,16.34-3.28,42.34-4.06,77.29,0,4.57.15,7.64.31,9.64a22.58,22.58,0,0,1,5.08,14.34v1.25l-.15,1.24c-1.79,14.32-9.87,20.81-14.53,23.39A38.94,38.94,0,0,1,455,221.31Z"/><path class="cls-2" d="M443.23,198.31a13.75,13.75,0,0,1-6.59-9.6,167,167,0,0,1-1.41-23.4,502.73,502.73,0,0,1,3-52.3q3-28.5,6-46.1,1.2-9,4-12.9t10.2-3.9c4.14,0,7,1,8.5,3.1s2.3,5.77,2.3,11.1a225.19,225.19,0,0,1-1.59,23q-3,25.6-4.21,79.4,0,20.4,3.4,21.6a2.51,2.51,0,0,1,2,2.6q-.79,6.41-4.4,8.4a19.2,19.2,0,0,1-9.4,2A23.22,23.22,0,0,1,443.23,198.31Z"/><path class="cls-2" d="M405.37,201.58q-7.2-2-9-7.1a40.44,40.44,0,0,1-2-12.3v-3.6a3.17,3.17,0,0,0-.4-1.4q-10.2,9.4-22,9.4a22.86,22.86,0,0,1-14.8-5,17.91,17.91,0,0,1-6.8-13.2l-.2-3.2q0-25,20.8-40.6a28,28,0,0,1,16.6-5.6,28.38,28.38,0,0,1,8,1l4.8,1q1.2,0,1.8-1.8,2-6.8,6-9.6a14.13,14.13,0,0,1,8.2-2.8q8.4,0,10,7.2a33.71,33.71,0,0,1,.6,6.6,75,75,0,0,1-1.2,13.8v.2q-3,25.2-3,39.2,0,6.6.2,11.2l.2,5.8q0,5-1.4,7.3c-.93,1.53-2.87,2.63-5.8,3.3a20.43,20.43,0,0,1-5.6.8A22.21,22.21,0,0,1,405.37,201.58ZM383,166.48a84.36,84.36,0,0,0,6.5-8.3,74.2,74.2,0,0,0,6.1-10.4,8.83,8.83,0,0,0,1-4,6.5,6.5,0,0,0-2.2-4.6,13.45,13.45,0,0,1-2.4-2.6c-.53-.8-1.07-1.2-1.6-1.2-.27,0-.6.27-1,.8q-11,14.59-11,28.8c0,2.8.27,4.4.8,4.8Q380,169.78,383,166.48Z"/><path class="cls-2" d="M44.6,216.6q-12.8,0-16.1-10.5a119.25,119.25,0,0,1-4.6-24.6q-1.3-14.1-1.3-30.1a542.63,542.63,0,0,1,3.9-65.1Q30.4,54,34.4,39.4l.2-1c0-.53-.4-.8-1.2-.8H31a25,25,0,0,1-7.2-1.4Q20,34.6,20,32.6q0-3.2,7.1-6.2a56.82,56.82,0,0,1,15.3-4l4-.4a183.41,183.41,0,0,1,26.2-2A80.5,80.5,0,0,1,98,24.1q12.41,4.09,25.6,15.7,12.19,11.21,12.2,32a72.89,72.89,0,0,1-4.5,24.6,78.63,78.63,0,0,1-13.2,23.3A67.88,67.88,0,0,1,96.9,137a59.68,59.68,0,0,1-28.3,6.6,73.66,73.66,0,0,1-15.8-1.8l-1-.2c-.4,0-.67.27-.8.8s-.2,3.53-.2,9q0,17.6,1.1,29.1A138.23,138.23,0,0,0,56,203.2a18.57,18.57,0,0,1,.8,5q0,8.2-10.8,8.4Zm33.2-89q29.4-21.19,29.4-56.4,0-20.4-14.4-30.4Q81,32.21,70.2,32.2q-5.4,0-7,1.2a2.53,2.53,0,0,0-.8,1.8q-5.2,27-7.8,54.2L53,106.8q-1.39,11.81-1.4,16.2c0,2.27.3,3.63.9,4.1a4.52,4.52,0,0,0,2.8.7,27.86,27.86,0,0,1,4.4.4,19.88,19.88,0,0,1,5.9,2.2,7.51,7.51,0,0,0,3,.6Q73,131,77.8,127.6Z"/><path class="cls-2" d="M158.27,201.58q-7.2-2-9-7.1a40.44,40.44,0,0,1-2-12.3v-3.6a3.17,3.17,0,0,0-.4-1.4q-10.2,9.4-22,9.4a22.86,22.86,0,0,1-14.8-5,17.91,17.91,0,0,1-6.8-13.2l-.2-3.2q0-25,20.8-40.6a28,28,0,0,1,16.6-5.6,28.38,28.38,0,0,1,8,1l4.8,1q1.2,0,1.8-1.8,2-6.8,6-9.6a14.13,14.13,0,0,1,8.2-2.8q8.4,0,10,7.2a33.71,33.71,0,0,1,.6,6.6,75,75,0,0,1-1.2,13.8v.2q-3,25.2-3,39.2,0,6.6.2,11.2l.2,5.8q0,5-1.4,7.3c-.93,1.53-2.87,2.63-5.8,3.3a20.43,20.43,0,0,1-5.6.8A22.21,22.21,0,0,1,158.27,201.58Zm-22.4-35.1a84.36,84.36,0,0,0,6.5-8.3,74.2,74.2,0,0,0,6.1-10.4,8.83,8.83,0,0,0,1-4,6.5,6.5,0,0,0-2.2-4.6,13.45,13.45,0,0,1-2.4-2.6c-.53-.8-1.07-1.2-1.6-1.2-.27,0-.6.27-1,.8q-11,14.59-11,28.8c0,2.8.27,4.4.8,4.8Q132.87,169.78,135.87,166.48Z"/><path class="cls-2" d="M300.37,254.11q-3.6-1.8-5.2-7.6-3.6-14.81-3.6-52.8,0-20,.7-38.3t1.5-26.9q1-16.8,3.9-21.6t9.9-4.8q8.6,0,10.2,3.5t1.6,12.1v11.8a3.48,3.48,0,0,0,.4,1.6l1.4-2.2a23.33,23.33,0,0,1,2.4-3.8q5.6-6.19,11.8-6.2a14.17,14.17,0,0,1,10.3,4.5,15.58,15.58,0,0,1,4.5,11.5q0,9.41-8.6,18.4-9.79,9.6-14.4,11.4a20.45,20.45,0,0,0-3.1,2.2,3.88,3.88,0,0,0-1.1,3q-1.2,24.21-1.2,40,0,24.19,1.2,32.6.4,4.2.4,6.6a7.19,7.19,0,0,1-.7,3.7,4.48,4.48,0,0,1-2.3,1.7,26.33,26.33,0,0,1-9.8,2A23.32,23.32,0,0,1,300.37,254.11ZM332.67,141a22.27,22.27,0,0,0,2.7-10.1,13.35,13.35,0,0,0-1-5.2q-3.19,3.21-6.1,11t-2.9,12.8v.6A28.26,28.26,0,0,0,332.67,141Z"/><path class="cls-1" d="M236.16,158.75a29.52,29.52,0,0,1-7-.95,25.47,25.47,0,0,1-13.33-7c-7.25-6.83-11.37-17.6-11.3-29.6A59.87,59.87,0,0,1,209,100c6.36-14.46,17.27-23.41,30-24.64.81-.07,1.53-.11,2.26-.11a31.71,31.71,0,0,1,8.35,1.23,26.88,26.88,0,0,1,11.7,6.44c9.78,8.82,13.62,23.26,10.53,39.6-3.34,17.39-13.92,30.73-27.63,34.86a26.28,26.28,0,0,1-8,1.35Z"/><path class="cls-1" d="M264.84,181.77a26.41,26.41,0,0,1-12.74-3.19,27,27,0,0,1-14.28-18.08c-2.14-8.58-.82-17.21,4-26.39,5.79-10.91,14.94-19.35,25.12-23.18a34.79,34.79,0,0,1,12.39-2.48,30.63,30.63,0,0,1,3.7.23l.19,0a28.35,28.35,0,0,1,20,13.25c4.33,7.36,5.15,17,2.26,26.62-1.72,5.71-6.57,13.71-10.05,17.64a60,60,0,0,1-11.3,9.78,36.74,36.74,0,0,1-19,5.78Z"/><path class="cls-1" d="M199.19,169c-8.87,0-17.13-4.13-23.25-11.63-9.09-11.25-12.55-30.78-8.11-45.51,4-13.59,12.69-19.57,19.25-22.17A25.14,25.14,0,0,1,196.42,88a29.8,29.8,0,0,1,15.11,4C220,97,226.68,107.2,229.2,119.1c1.76,8.19,1.41,18.71-.87,26.15-4.49,14.43-15.91,23.7-29.13,23.7Z"/><path class="cls-1" d="M245.82,220.68a30.68,30.68,0,0,1-6.54-.71c-5.12-1.14-8.7-3.05-13.56-5.84-4.08-2.32-4.35-2.41-5.15-2.67a4.5,4.5,0,0,0-1.89-.35c-.78,0-1.87.06-3.35.19-2.53.22-4.77.33-6.82.33-6.35,0-15.76-.92-24.12-8.83-10.69-10.18-13.9-27.36-7.85-41.81a37.54,37.54,0,0,1,9.09-13.09h0c2.72-2.38,25.19-18.44,29-20.35a38.7,38.7,0,0,1,17.24-4.1c.82,0,1.64,0,2.45.08,10.19.63,20.58,6.38,27,15,2.68,3.56,14.66,26.12,15.8,28.52a34.38,34.38,0,0,1,3.52,14.11,39.29,39.29,0,0,1-10.83,28.78,33.22,33.22,0,0,1-24,10.74Z"/><path class="cls-3" d="M233,143.49a18.56,18.56,0,0,0-9.43,1.94c-1.66.84-22.94,15.85-24.59,17.34a18.09,18.09,0,0,0-4,5.94c-2.79,6.67-1.42,15.21,3.15,19.56,3.21,3,7.07,3.84,15.45,3.1,6.11-.53,8.92-.31,13.08,1,2.64.85,3.94,1.48,9,4.37,4.41,2.53,5.85,3.2,7.94,3.66,8.59,1.91,17.58-7.75,17.1-18.37a14.4,14.4,0,0,0-1.62-6.46c-1.84-3.89-12.71-23.73-13.73-25.09A17.81,17.81,0,0,0,233,143.49Z"/><path class="cls-3" d="M240.92,95.29c-5.28.51-10.24,5.18-13.55,12.7a40.39,40.39,0,0,0-2.85,13.3c0,6.27,1.9,12,5,14.94,1.52,1.45,1.68,1.52,4.14,2.09s2.61.58,4.7-.06c6.4-1.91,11.9-9.68,13.78-19.45,1.76-9.3.22-17-4.3-21a7,7,0,0,0-3.68-2A10.36,10.36,0,0,0,240.92,95.29Z"/><path class="cls-3" d="M280.6,128.53a13.16,13.16,0,0,0-6.57,1.11c-5.59,2.11-11,7.27-14.5,13.83-2.5,4.73-3.23,8.53-2.29,12.23a7.06,7.06,0,0,0,4,5.1,6.77,6.77,0,0,0,3.91,1,17,17,0,0,0,8.39-2.71,40.88,40.88,0,0,0,7-6.11,39.53,39.53,0,0,0,5.87-10.15c1.28-4.2,1.13-8.22-.36-10.73A8.44,8.44,0,0,0,280.6,128.53Z"/><path class="cls-3" d="M194.47,108.22c-3.56,1.42-6.05,4.48-7.49,9.36-2.54,8.43-.46,21,4.45,27.09,6.06,7.43,14.61,4.88,17.78-5.29a37,37,0,0,0,.43-16.12c-1.36-6.38-4.69-12-8.49-14.27A10.13,10.13,0,0,0,194.47,108.22Z"/></g></g></g></svg>